:SAMPLES-PER-SECOND 30
:FULLY-SPECIFIED
:DEGREES
17
root  6.05443 38.9425 6.39869 -112.559 -81.8238 107.472
RightUpLeg  -14.3487 -0.185924 -23.5066
RightLeg  26.082 -2.94286 -1.76573
RightFoot  -1.97686 -1.06971 12.95
RightToes  5.82063e-011 0 -3.6325e-017
Spine  12.3828 0.725014 -7.48769
Spine1  -3.66976 1.00148 -8.3127
HEad  9.93173 -8.10884 -5.43068
LeftShoulder1  1.24014 -4.09505 -8.89396
LeftArm  58.9813 27.9583 -36.3165
LeftForeArm  116.562 -81.4315 -76.0545
LeftHand  -1.62058 0.738809 39.3207
RightShoulder  1.12085 2.2058 12.6438
RightArm  53.3699 -28.7512 34.7427
RightForeArm  101.135 80.4164 59.5204
RightHand  -2.53403 6.96272 -23.7959
LeftUpLeg  -5.19483 3.16198 -11.0648
LeftLeg  18.138 17.9741 5.00984
LeftFoot  -8.61942 0.103262 -2.1698
LeftToes  -1.1369e-010 2.7689e-011 -1.90827e-011
18
root  6.00095 38.9988 6.1839 -113.014 -81.8373 107.826
RightUpLeg  -12.4552 6.06004 -23.0317
RightLeg  22.674 -9.98908 -4.76471
RightFoot  0.80524 -0.915745 8.57852
RightToes  5.82063e-011 0 -3.6325e-017
Spine  12.225 0.522439 -7.94062
Spine1  -3.46988 0.711601 -7.84254
HEad  10.4318 -7.30818 -5.20024
LeftShoulder1  1.24293 -4.06734 -9.00178
LeftArm  59.1242 28.2153 -35.9635
LeftForeArm  119.191 -81.5222 -78.1991
LeftHand  -1.56395 0.931552 39.5768
RightShoulder  1.11876 2.2072 12.5974
RightArm  53.0581 -29.0032 34.5337
RightForeArm  106.763 80.8603 64.2674
RightHand  -2.46518 6.98613 -23.1338
LeftUpLeg  -4.77371 3.26962 -10.6976
LeftLeg  17.7214 17.9312 4.94482
LeftFoot  -8.38054 0.110563 -2.33161
LeftToes  -1.1369e-010 2.7689e-011 -1.90827e-011
19
root  5.93801 39.0919 5.98529 -111.313 -81.8272 106.214
RightUpLeg  -10.7511 10.7609 -22.447
RightLeg  20.0662 -14.3939 -5.95164
RightFoot  1.23982 -0.692053 6.32452
RightToes  5.82063e-011 0 -3.6325e-017
Spine  11.8768 0.206078 -8.18934
Spine1  -3.21908 0.372431 -7.47624
HEad  10.8827 -6.53652 -4.70341
LeftShoulder1  1.23916 -4.06455 -8.95271
LeftArm  59.4687 28.4149 -35.4889
LeftForeArm  124.637 -81.6536 -83.3823
LeftHand  -1.50603 1.06335 39.2922
RightShoulder  1.13707 2.23921 12.8303
RightArm  52.8021 -29.2199 33.8734
RightForeArm  112.859 81.2439 69.7705
RightHand  -2.41939 6.9408 -22.8011
LeftUpLeg  -4.29596 3.13712 -10.5074
LeftLeg  16.7489 17.9041 4.70905
LeftFoot  -7.80453 0.125046 -2.52865
LeftToes  -1.1369e-010 2.7689e-011 -1.90827e-011
20
root  5.88767 39.1802 5.81271 -110.643 -81.8415 105.784
RightUpLeg  -10.0023 13.0905 -21.9517
RightLeg  18.9715 -16.5208 -6.40428
RightFoot  0.195605 -0.630192 6.25686
RightToes  5.82063e-011 0 -3.6325e-017
Spine  11.4311 -0.0458616 -7.82898
Spine1  -2.80718 0.265195 -7.7241
HEad  10.9037 -5.98569 -4.06063
LeftShoulder1  1.20883 -3.91697 -8.85967
LeftArm  59.5273 28.1357 -34.884
LeftForeArm  134.31 -81.7293 -92.3623
LeftHand  -1.47952 0.97793 37.9369
RightShoulder  1.14103 2.18688 13.1103
RightArm  52.3213 -29.3591 32.9627
RightForeArm  119.741 81.5525 76.3237
RightHand  -2.40259 6.98072 -22.5795
LeftUpLeg  -4.05945 2.93798 -10.2892
LeftLeg  15.8837 17.9311 4.55444
LeftFoot  -7.26306 0.14685 -2.90087
LeftToes  -1.1369e-010 2.7689e-011 -1.90827e-011
21
root  5.86122 39.2194 5.6474 -113.866 -81.931 109.225
RightUpLeg  -10.1647 12.5139 -21.5788
RightLeg  18.7126 -15.8608 -6.08049
RightFoot  -0.0993654 -0.745448 7.54313
RightToes  5.82063e-011 0 -3.6325e-017
Spine  11.1336 -0.0126257 -7.03296
Spine1  -2.29052 0.528158 -8.38837
HEad  10.2214 -5.74362 -3.42197
LeftShoulder1  1.14854 -3.55291 -8.8434
LeftArm  58.4713 27.5839 -34.326
LeftForeArm  148.844 -81.5785 -104.276
LeftHand  -1.61516 0.212286 35.4485
RightShoulder  1.10105 2.02055 12.9765
RightArm  51.8338 -29.4547 31.9068
RightForeArm  131.606 81.7977 87.6266
RightHand  -2.36188 7.21225 -21.8229
LeftUpLeg  -4.20293 3.02368 -9.77273
LeftLeg  15.8433 18.0159 4.67429
LeftFoot  -7.20964 0.165015 -3.3797
LeftToes  -1.1369e-010 2.7689e-011 -1.90827e-011
22
root  5.85144 39.2142 5.44666 -120.521 -81.8456 115.93
RightUpLeg  -10.7036 9.68201 -21.2254
RightLeg  18.5926 -12.6053 -4.87073
RightFoot  0.410333 -0.919334 8.94411
RightToes  5.82063e-011 0 -3.6325e-017
Spine  11.194 0.37659 -6.58312
Spine1  -1.93583 1.02804 -8.7018
HEad  9.15261 -5.71998 -2.71769
LeftShoulder1  1.07074 -3.09941 -8.77285
LeftArm  55.9975 27.5266 -33.9285
LeftForeArm  167.424 -80.8863 -118.604
LeftHand  -1.93025 -1.83885 30.7029
RightShoulder  1.04324 1.8746 12.3871
RightArm  51.9076 -29.5564 30.4754
RightForeArm  150.977 81.5323 105.799
RightHand  -2.2266 7.47995 -20.2052
LeftUpLeg  -4.4297 3.46964 -9.03
LeftLeg  16.3815 18.2631 4.94231
LeftFoot  -7.44776 0.175365 -3.84417
LeftToes  -1.1369e-010 2.7689e-011 -1.90827e-011
23
root  5.84444 39.2044 5.18704 -126.856 -81.3951 122.083
RightUpLeg  -11.0807 6.19708 -20.9582
RightLeg  18.6403 -8.47705 -3.37126
RightFoot  0.412836 -1.02743 9.98969
RightToes  5.82063e-011 0 -3.6325e-017
Spine  11.5577 0.940363 -6.94826
Spine1  -1.80537 1.50036 -8.3424
HEad  8.35738 -5.79708 -1.83018
LeftShoulder1  0.991063 -2.72093 -8.44254
LeftArm  52.836 28.2008 -33.4979
LeftForeArm  -174.828 -79.2517 -133.044
LeftHand  -2.01766 -5.09857 22.4374
RightShoulder  1.00902 1.85859 11.7418
RightArm  52.5847 -29.5353 28.6651
RightForeArm  169.461 80.3641 123.149
RightHand  -1.99081 7.49915 -18.1102
LeftUpLeg  -4.26929 3.98951 -8.40574
LeftLeg  16.6534 18.6057 5.07046
LeftFoot  -7.46254 0.191906 -4.34425
LeftToes  -1.1369e-010 2.7689e-011 -1.90827e-011
